{
    "asset" : {
        "generator" : "Khronos glTF Blender I/O v1.8.19",
        "version" : "2.0"
    },
    "scene" : 0,
    "scenes" : [
        {
            "name" : "Scene",
            "nodes" : [
                6
            ]
        }
    ],
    "nodes" : [
        {
            "mesh" : 0,
            "name" : "BezierCurve"
        },
        {
            "mesh" : 1,
            "name" : "Circle",
            "rotation" : [
                -0.0033694745507091284,
                0.003941222559660673,
                0.017017120495438576,
                0.9998418688774109
            ],
            "scale" : [
                0.035469163209199905,
                0.035469163209199905,
                0.035469163209199905
            ],
            "translation" : [
                0.0026138601824641228,
                2.4224534034729004,
                0.06711028516292572
            ]
        },
        {
            "mesh" : 2,
            "name" : "Cylinder.001",
            "rotation" : [
                0.06379623711109161,
                0,
                0,
                0.9979629516601562
            ],
            "scale" : [
                0.8669438362121582,
                0.009742052294313908,
                0.8669438362121582
            ],
            "translation" : [
                0,
                2.4241456985473633,
                0.06985897570848465
            ]
        },
        {
            "mesh" : 3,
            "name" : "Cylinder.002",
            "scale" : [
                0.8669438362121582,
                0.009742052294313908,
                0.8669438362121582
            ]
        },
        {
            "mesh" : 4,
            "name" : "Sphere",
            "translation" : [
                0,
                1.3262542486190796,
                0
            ]
        },
        {
            "mesh" : 5,
            "name" : "Sphere.002",
            "translation" : [
                0,
                1.3262542486190796,
                0
            ]
        },
        {
            "children" : [
                0,
                1,
                2,
                3,
                4,
                5
            ],
            "name" : "Empty"
        }
    ],
    "animations" : [
        {
            "channels" : [
                {
                    "sampler" : 0,
                    "target" : {
                        "node" : 6,
                        "path" : "rotation"
                    }
                }
            ],
            "name" : "EmptyAction",
            "samplers" : [
                {
                    "input" : 30,
                    "interpolation" : "LINEAR",
                    "output" : 31
                }
            ]
        }
    ],
    "materials" : [
        {
            "doubleSided" : true,
            "name" : "fris",
            "pbrMetallicRoughness" : {
                "baseColorFactor" : [
                    0,
                    0,
                    0,
                    1
                ],
                "metallicFactor" : 0,
                "roughnessFactor" : 0.20000000298023224
            }
        },
        {
            "doubleSided" : true,
            "name" : "Material.001",
            "pbrMetallicRoughness" : {
                "baseColorTexture" : {
                    "index" : 0
                },
                "metallicFactor" : 0,
                "roughnessFactor" : 0.7954545021057129
            }
        },
        {
            "doubleSided" : true,
            "name" : "record",
            "pbrMetallicRoughness" : {
                "baseColorFactor" : [
                    0,
                    0,
                    0,
                    1
                ],
                "metallicFactor" : 0
            }
        },
        {
            "doubleSided" : true,
            "name" : "record2",
            "pbrMetallicRoughness" : {
                "baseColorFactor" : [
                    0.44904187321662903,
                    0.053037382662296295,
                    0.025221070274710655,
                    1
                ],
                "metallicFactor" : 0,
                "roughnessFactor" : 0.4000000059604645
            }
        },
        {
            "doubleSided" : true,
            "name" : "record2.001",
            "pbrMetallicRoughness" : {
                "baseColorFactor" : [
                    0.021348705515265465,
                    0.05310355871915817,
                    0.1024690568447113,
                    1
                ],
                "metallicFactor" : 0,
                "roughnessFactor" : 0.10000000149011612
            }
        },
        {
            "doubleSided" : true,
            "name" : "Material.003",
            "pbrMetallicRoughness" : {
                "baseColorTexture" : {
                    "index" : 1
                },
                "metallicFactor" : 0,
                "roughnessFactor" : 0.6000000238418579
            }
        }
    ],
    "meshes" : [
        {
            "name" : "BezierCurve.001",
            "primitives" : [
                {
                    "attributes" : {
                        "POSITION" : 0,
                        "NORMAL" : 1,
                        "TEXCOORD_0" : 2
                    },
                    "indices" : 3,
                    "material" : 0
                }
            ]
        },
        {
            "name" : "Circle",
            "primitives" : [
                {
                    "attributes" : {
                        "POSITION" : 4,
                        "NORMAL" : 5,
                        "TEXCOORD_0" : 6
                    },
                    "indices" : 7,
                    "material" : 1
                }
            ]
        },
        {
            "name" : "Cylinder.001",
            "primitives" : [
                {
                    "attributes" : {
                        "POSITION" : 8,
                        "NORMAL" : 9,
                        "TEXCOORD_0" : 10
                    },
                    "indices" : 11,
                    "material" : 2
                },
                {
                    "attributes" : {
                        "POSITION" : 12,
                        "NORMAL" : 13,
                        "TEXCOORD_0" : 14
                    },
                    "indices" : 15,
                    "material" : 3
                }
            ]
        },
        {
            "name" : "Cylinder.002",
            "primitives" : [
                {
                    "attributes" : {
                        "POSITION" : 16,
                        "NORMAL" : 17,
                        "TEXCOORD_0" : 18
                    },
                    "indices" : 11,
                    "material" : 2
                },
                {
                    "attributes" : {
                        "POSITION" : 19,
                        "NORMAL" : 20,
                        "TEXCOORD_0" : 21
                    },
                    "indices" : 15,
                    "material" : 4
                }
            ]
        },
        {
            "name" : "Sphere.011",
            "primitives" : [
                {
                    "attributes" : {
                        "POSITION" : 22,
                        "NORMAL" : 23,
                        "TEXCOORD_0" : 24
                    },
                    "indices" : 25,
                    "material" : 1
                }
            ]
        },
        {
            "name" : "Sphere.013",
            "primitives" : [
                {
                    "attributes" : {
                        "POSITION" : 26,
                        "NORMAL" : 27,
                        "TEXCOORD_0" : 28
                    },
                    "indices" : 29,
                    "material" : 5
                }
            ]
        }
    ],
    "textures" : [
        {
            "sampler" : 0,
            "source" : 0
        },
        {
            "sampler" : 0,
            "source" : 1
        }
    ],
    "images" : [
        {
            "mimeType" : "image/png",
            "name" : "color",
            "uri" : "color.png"
        },
        {
            "mimeType" : "image/png",
            "name" : "color2",
            "uri" : "color2.png"
        }
    ],
    "accessors" : [
        {
            "bufferView" : 0,
            "componentType" : 5126,
            "count" : 507,
            "max" : [
                0.3803045153617859,
                1.889932632446289,
                0.6286911368370056
            ],
            "min" : [
                0.07159358263015747,
                1.0610706806182861,
                0.48329517245292664
            ],
            "type" : "VEC3"
        },
        {
            "bufferView" : 1,
            "componentType" : 5126,
            "count" : 507,
            "type" : "VEC3"
        },
        {
            "bufferView" : 2,
            "componentType" : 5126,
            "count" : 507,
            "type" : "VEC2"
        },
        {
            "bufferView" : 3,
            "componentType" : 5123,
            "count" : 2592,
            "type" : "SCALAR"
        },
        {
            "bufferView" : 4,
            "componentType" : 5126,
            "count" : 32,
            "max" : [
                1,
                0,
                1
            ],
            "min" : [
                -1,
                0,
                -1
            ],
            "type" : "VEC3"
        },
        {
            "bufferView" : 5,
            "componentType" : 5126,
            "count" : 32,
            "type" : "VEC3"
        },
        {
            "bufferView" : 6,
            "componentType" : 5126,
            "count" : 32,
            "type" : "VEC2"
        },
        {
            "bufferView" : 7,
            "componentType" : 5123,
            "count" : 90,
            "type" : "SCALAR"
        },
        {
            "bufferView" : 8,
            "componentType" : 5126,
            "count" : 512,
            "max" : [
                1.5199999809265137,
                1,
                1.5199999809265137
            ],
            "min" : [
                -1.5199999809265137,
                0.9999796152114868,
                -1.5199999809265137
            ],
            "type" : "VEC3"
        },
        {
            "bufferView" : 9,
            "componentType" : 5126,
            "count" : 512,
            "type" : "VEC3"
        },
        {
            "bufferView" : 10,
            "componentType" : 5126,
            "count" : 512,
            "type" : "VEC2"
        },
        {
            "bufferView" : 11,
            "componentType" : 5123,
            "count" : 768,
            "type" : "SCALAR"
        },
        {
            "bufferView" : 12,
            "componentType" : 5126,
            "count" : 512,
            "max" : [
                0.5554043054580688,
                0.9999943375587463,
                0.5554042458534241
            ],
            "min" : [
                -0.5554037094116211,
                0.9999796152114868,
                -0.5554037690162659
            ],
            "type" : "VEC3"
        },
        {
            "bufferView" : 13,
            "componentType" : 5126,
            "count" : 512,
            "type" : "VEC3"
        },
        {
            "bufferView" : 14,
            "componentType" : 5126,
            "count" : 512,
            "type" : "VEC2"
        },
        {
            "bufferView" : 15,
            "componentType" : 5123,
            "count" : 768,
            "type" : "SCALAR"
        },
        {
            "bufferView" : 16,
            "componentType" : 5126,
            "count" : 512,
            "max" : [
                1.5199999809265137,
                1,
                1.5199999809265137
            ],
            "min" : [
                -1.5199999809265137,
                0.9999796152114868,
                -1.5199999809265137
            ],
            "type" : "VEC3"
        },
        {
            "bufferView" : 17,
            "componentType" : 5126,
            "count" : 512,
            "type" : "VEC3"
        },
        {
            "bufferView" : 18,
            "componentType" : 5126,
            "count" : 512,
            "type" : "VEC2"
        },
        {
            "bufferView" : 19,
            "componentType" : 5126,
            "count" : 512,
            "max" : [
                0.5554043054580688,
                0.9999943375587463,
                0.5554042458534241
            ],
            "min" : [
                -0.5554037094116211,
                0.9999796152114868,
                -0.5554037690162659
            ],
            "type" : "VEC3"
        },
        {
            "bufferView" : 20,
            "componentType" : 5126,
            "count" : 512,
            "type" : "VEC3"
        },
        {
            "bufferView" : 21,
            "componentType" : 5126,
            "count" : 512,
            "type" : "VEC2"
        },
        {
            "bufferView" : 22,
            "componentType" : 5126,
            "count" : 457482,
            "max" : [
                0.5503002405166626,
                1.1103894710540771,
                0.5240747332572937
            ],
            "min" : [
                -0.5515938997268677,
                0.2172815352678299,
                -0.47449782490730286
            ],
            "type" : "VEC3"
        },
        {
            "bufferView" : 23,
            "componentType" : 5126,
            "count" : 457482,
            "type" : "VEC3"
        },
        {
            "bufferView" : 24,
            "componentType" : 5126,
            "count" : 457482,
            "type" : "VEC2"
        },
        {
            "bufferView" : 25,
            "componentType" : 5125,
            "count" : 2706102,
            "type" : "SCALAR"
        },
        {
            "bufferView" : 26,
            "componentType" : 5126,
            "count" : 767168,
            "max" : [
                1.1417597532272339,
                1.0305217504501343,
                0.7450977563858032
            ],
            "min" : [
                -1.1348055601119995,
                -1.361886739730835,
                -0.7509773969650269
            ],
            "type" : "VEC3"
        },
        {
            "bufferView" : 27,
            "componentType" : 5126,
            "count" : 767168,
            "type" : "VEC3"
        },
        {
            "bufferView" : 28,
            "componentType" : 5126,
            "count" : 767168,
            "type" : "VEC2"
        },
        {
            "bufferView" : 29,
            "componentType" : 5125,
            "count" : 4345902,
            "type" : "SCALAR"
        },
        {
            "bufferView" : 30,
            "componentType" : 5126,
            "count" : 60,
            "max" : [
                20
            ],
            "min" : [
                0.3333333333333333
            ],
            "type" : "SCALAR"
        },
        {
            "bufferView" : 31,
            "componentType" : 5126,
            "count" : 60,
            "type" : "VEC4"
        }
    ],
    "bufferViews" : [
        {
            "buffer" : 0,
            "byteLength" : 6084,
            "byteOffset" : 0
        },
        {
            "buffer" : 0,
            "byteLength" : 6084,
            "byteOffset" : 6084
        },
        {
            "buffer" : 0,
            "byteLength" : 4056,
            "byteOffset" : 12168
        },
        {
            "buffer" : 0,
            "byteLength" : 5184,
            "byteOffset" : 16224
        },
        {
            "buffer" : 0,
            "byteLength" : 384,
            "byteOffset" : 21408
        },
        {
            "buffer" : 0,
            "byteLength" : 384,
            "byteOffset" : 21792
        },
        {
            "buffer" : 0,
            "byteLength" : 256,
            "byteOffset" : 22176
        },
        {
            "buffer" : 0,
            "byteLength" : 180,
            "byteOffset" : 22432
        },
        {
            "buffer" : 0,
            "byteLength" : 6144,
            "byteOffset" : 22612
        },
        {
            "buffer" : 0,
            "byteLength" : 6144,
            "byteOffset" : 28756
        },
        {
            "buffer" : 0,
            "byteLength" : 4096,
            "byteOffset" : 34900
        },
        {
            "buffer" : 0,
            "byteLength" : 1536,
            "byteOffset" : 38996
        },
        {
            "buffer" : 0,
            "byteLength" : 6144,
            "byteOffset" : 40532
        },
        {
            "buffer" : 0,
            "byteLength" : 6144,
            "byteOffset" : 46676
        },
        {
            "buffer" : 0,
            "byteLength" : 4096,
            "byteOffset" : 52820
        },
        {
            "buffer" : 0,
            "byteLength" : 1536,
            "byteOffset" : 56916
        },
        {
            "buffer" : 0,
            "byteLength" : 6144,
            "byteOffset" : 58452
        },
        {
            "buffer" : 0,
            "byteLength" : 6144,
            "byteOffset" : 64596
        },
        {
            "buffer" : 0,
            "byteLength" : 4096,
            "byteOffset" : 70740
        },
        {
            "buffer" : 0,
            "byteLength" : 6144,
            "byteOffset" : 74836
        },
        {
            "buffer" : 0,
            "byteLength" : 6144,
            "byteOffset" : 80980
        },
        {
            "buffer" : 0,
            "byteLength" : 4096,
            "byteOffset" : 87124
        },
        {
            "buffer" : 0,
            "byteLength" : 5489784,
            "byteOffset" : 91220
        },
        {
            "buffer" : 0,
            "byteLength" : 5489784,
            "byteOffset" : 5581004
        },
        {
            "buffer" : 0,
            "byteLength" : 3659856,
            "byteOffset" : 11070788
        },
        {
            "buffer" : 0,
            "byteLength" : 10824408,
            "byteOffset" : 14730644
        },
        {
            "buffer" : 0,
            "byteLength" : 9206016,
            "byteOffset" : 25555052
        },
        {
            "buffer" : 0,
            "byteLength" : 9206016,
            "byteOffset" : 34761068
        },
        {
            "buffer" : 0,
            "byteLength" : 6137344,
            "byteOffset" : 43967084
        },
        {
            "buffer" : 0,
            "byteLength" : 17383608,
            "byteOffset" : 50104428
        },
        {
            "buffer" : 0,
            "byteLength" : 240,
            "byteOffset" : 67488036
        },
        {
            "buffer" : 0,
            "byteLength" : 960,
            "byteOffset" : 67488276
        }
    ],
    "samplers" : [
        {
            "magFilter" : 9729,
            "minFilter" : 9987
        }
    ],
    "buffers" : [
        {
            "byteLength" : 67489236,
            "uri" : "tom2.bin"
        }
    ]
}
